<svg width="26" height="27" viewBox="0 0 26 27" fill="none" xmlns="http://www.w3.org/2000/svg">
<path d="M6.4202 15.9656L5.59745 19.037L2.59033 19.1006C1.69164 17.4338 1.18188 15.5266 1.18188 13.5C1.18188 11.5403 1.65849 9.6922 2.50331 8.06494H2.50395L5.18114 8.55576L6.35391 11.2169C6.10845 11.9325 5.97467 12.7007 5.97467 13.5C5.97476 14.3675 6.1319 15.1987 6.4202 15.9656Z" fill="#FBBB00"/>
<path d="M24.6119 11.2922C24.7476 12.0071 24.8184 12.7454 24.8184 13.5C24.8184 14.3461 24.7294 15.1714 24.5599 15.9675C23.9846 18.6766 22.4814 21.0422 20.3989 22.7162L20.3983 22.7156L17.0262 22.5435L16.549 19.5643C17.9308 18.7539 19.0107 17.4857 19.5795 15.9675H13.26V11.2922H19.6717H24.6119Z" fill="#518EF8"/>
<path d="M20.3981 22.7156L20.3988 22.7163C18.3735 24.3442 15.8007 25.3182 13.0001 25.3182C8.49942 25.3182 4.58645 22.8026 2.59033 19.1007L6.42021 15.9656C7.41824 18.6293 9.98773 20.5254 13.0001 20.5254C14.2949 20.5254 15.5079 20.1754 16.5488 19.5643L20.3981 22.7156Z" fill="#28B446"/>
<path d="M20.5437 4.40259L16.7151 7.53699C15.6379 6.86364 14.3644 6.47465 13.0002 6.47465C9.91965 6.47465 7.30211 8.45775 6.35407 11.2169L2.50406 8.06493H2.50342C4.47031 4.27273 8.43264 1.68182 13.0002 1.68182C15.8677 1.68182 18.4969 2.70327 20.5437 4.40259Z" fill="#F14336"/>
</svg>
